<svg width="454" height="1024" viewBox="0 0 454 1024" fill="none" xmlns="http://www.w3.org/2000/svg">
<rect width="454" height="1024" fill="#EFEDE5"/>
<rect width="293" height="679.031" rx="4" fill="#DCD7C5"/>
<mask id="path-3-inside-1_15_32" fill="white">
<path d="M146 485.321C146 483.112 147.791 481.321 150 481.321H450C452.209 481.321 454 483.112 454 485.321V1020C454 1022.21 452.209 1024 450 1024H150C147.791 1024 146 1022.21 146 1020V485.321Z"/>
</mask>
<path d="M136 485.321C136 477.589 142.268 471.321 150 471.321H450C457.732 471.321 464 477.589 464 485.321L444 491.321H156L136 485.321ZM454 1024H146H454ZM150 1024C142.268 1024 136 1017.73 136 1010V485.321C136 477.589 142.268 471.321 150 471.321L156 491.321V1020C156 1022.21 156 1024 156 1024H150ZM450 471.321C457.732 471.321 464 477.589 464 485.321V1010C464 1017.73 457.732 1024 450 1024H444C444 1024 444 1022.21 444 1020V491.321L450 471.321Z" fill="#DCD7C5" mask="url(#path-3-inside-1_15_32)"/>
<line x1="151" y1="679" x2="151" y2="490" stroke="white" stroke-width="10"/>
<line x1="146" y1="486" x2="293" y2="486" stroke="white" stroke-width="10"/>
</svg>
