<svg width="717" height="1023" viewBox="0 0 717 1023" fill="none" xmlns="http://www.w3.org/2000/svg">
<rect y="197" width="263" height="143" fill="#C0BAA4"/>
<rect x="263" width="454" height="1024" fill="#EFEDE5"/>
<rect x="263" width="293" height="679.031" rx="4" fill="#DCD7C5"/>
<mask id="path-4-inside-1_16_7" fill="white">
<path d="M409 485.321C409 483.112 410.791 481.321 413 481.321H713C715.209 481.321 717 483.112 717 485.321V1020C717 1022.21 715.209 1024 713 1024H413C410.791 1024 409 1022.21 409 1020V485.321Z"/>
</mask>
<path d="M399 485.321C399 477.589 405.268 471.321 413 471.321H713C720.732 471.321 727 477.589 727 485.321L707 491.321H419L399 485.321ZM717 1024H409H717ZM413 1024C405.268 1024 399 1017.73 399 1010V485.321C399 477.589 405.268 471.321 413 471.321L419 491.321V1020C419 1022.21 419 1024 419 1024H413ZM713 471.321C720.732 471.321 727 477.589 727 485.321V1010C727 1017.73 720.732 1024 713 1024H707C707 1024 707 1022.21 707 1020V491.321L713 471.321Z" fill="#DCD7C5" mask="url(#path-4-inside-1_16_7)"/>
<line x1="414" y1="679" x2="414" y2="490" stroke="white" stroke-width="10"/>
<line x1="409" y1="486" x2="556" y2="486" stroke="white" stroke-width="10"/>
</svg>
